<?xml version="1.0" encoding="UTF-8"?>
<svg version="1.1" xmlns="http://www.w3.org/2000/svg" width="512" height="512">
<path d="M0 0 C0.70631561 -0.00554901 1.41263123 -0.01109802 2.14035034 -0.01681519 C4.46462814 -0.02858336 6.78694393 -0.00437107 9.11108398 0.02148438 C10.73103242 0.02319616 12.35098363 0.02312911 13.97093201 0.0213623 C17.36126305 0.02301385 20.75093149 0.04168232 24.14111328 0.07324219 C28.48470145 0.1129515 32.82742351 0.11728288 37.17115879 0.10977936 C40.51437807 0.10670886 43.85740295 0.11883238 47.20057487 0.13591003 C48.80213133 0.14293569 50.40370981 0.14606509 52.00528145 0.1452179 C54.24350898 0.14701736 56.48070164 0.16840896 58.71875 0.1953125 C59.99162369 0.20373169 61.26449738 0.21215088 62.57594299 0.2208252 C65.98784 0.6389036 67.42152528 1.16687743 69.79467773 3.61523438 C71.21878393 11.67712371 70.63513198 26.75845768 66.40795898 33.98632812 C63.49455915 36.92794491 60.04617565 36.85334631 56.10717773 37.17773438 C55.11331055 37.26152344 54.11944336 37.3453125 53.09545898 37.43164062 C52.33620117 37.49222656 51.57694336 37.5528125 50.79467773 37.61523438 C50.79467773 40.25523438 50.79467773 42.89523438 50.79467773 45.61523438 C51.68026367 45.87175781 52.56584961 46.12828125 53.47827148 46.39257812 C65.14502449 49.99822395 77.21613205 54.84349447 86.79467773 62.61523438 C90.49462764 61.05284254 92.93144254 58.70483404 95.85717773 55.99023438 C99.8143487 52.70583545 102.47729166 50.93696889 107.66967773 50.74023438 C111.13576815 51.07313571 112.54625158 51.43778712 115.41967773 53.49023438 C116.59530273 55.03710938 116.59530273 55.03710938 117.79467773 56.61523438 C119.37017074 58.3515476 120.95420224 60.08013474 122.54467773 61.80273438 C126.99097158 66.71279728 128.33421355 69.32054063 128.26733398 75.95117188 C126.96630151 83.28426399 119.17259436 88.05649558 113.79467773 92.61523438 C114.32577148 93.77796875 114.85686523 94.94070312 115.40405273 96.13867188 C127.07210591 122.26772196 130.37352446 150.82108574 121.79467773 178.61523438 C121.48119385 179.63713867 121.48119385 179.63713867 121.16137695 180.6796875 C114.43398004 201.78406074 102.54556867 220.11278021 86.79467773 235.61523438 C88.23611093 240.80439387 90.58053834 244.70242774 93.54467773 249.11523438 C94.54433779 250.63152758 95.54298636 252.14848798 96.54077148 253.66601562 C97.07041504 254.46861816 97.60005859 255.2712207 98.14575195 256.09814453 C101.01061272 260.47136255 103.80668616 264.88812776 106.60717773 269.30273438 C107.78417714 271.15565227 108.96126159 273.00851615 110.13842773 274.86132812 C110.73268555 275.79702637 111.32694336 276.73272461 111.93920898 277.69677734 C113.8776378 280.74572183 115.82005251 283.79209682 117.76342773 286.83789062 C118.72865356 288.35153198 118.72865356 288.35153198 119.71337891 289.89575195 C120.95502326 291.84265415 122.19734954 293.78912165 123.44042969 295.73510742 C123.99690186 296.60820557 124.55337402 297.48130371 125.12670898 298.38085938 C125.86497925 299.53763184 125.86497925 299.53763184 126.61816406 300.71777344 C133.5281518 311.86208236 125.76924296 336.81140474 124.23217773 349.05273438 C123.8986308 351.73036154 123.56636514 354.40814718 123.23413086 357.0859375 C122.42541111 363.59626138 121.61193969 370.1059776 120.79467773 376.61523438 C121.75075928 377.07929688 122.70684082 377.54335938 123.69189453 378.02148438 C128.36887151 380.42382175 131.10324455 383.54093483 132.79467773 388.61523438 C133.4671715 396.05676371 133.39040335 402.47808527 128.79467773 408.61523438 C123.61397263 413.91368278 117.61413795 416.72324437 110.23388672 416.9206543 C108.58603929 416.90820252 106.93825117 416.88267471 105.29077148 416.84570312 C103.48022571 416.84360509 101.6696777 416.84299888 99.85913086 416.84375 C97.03884262 416.82924412 94.22022783 416.80250875 91.40039062 416.74926758 C80.80444482 416.12626761 80.80444482 416.12626761 71.07568359 419.33764648 C69.32342753 421.35286805 68.09270963 423.29305698 66.79467773 425.61523438 C58.16952733 434.56630641 47.16165154 438.6104478 34.91967773 438.92773438 C23.49757756 438.7205031 14.71734948 435.39736814 6.48999023 427.36523438 C0.99635456 421.42194169 0.99635456 421.42194169 -0.20532227 416.61523438 C-58.28532227 416.61523438 -116.36532227 416.61523438 -176.20532227 416.61523438 C-176.86532227 417.93523437 -177.52532227 419.25523437 -178.20532227 420.61523438 C-184.73768252 429.80136598 -194.7316685 435.5246948 -205.58032227 438.20117188 C-217.83176269 440.13369075 -228.94852086 438.57607633 -239.09594727 431.36132812 C-243.82103942 427.45000184 -247.53080128 423.12754027 -250.20532227 417.61523438 C-250.91418579 417.60936813 -251.62304932 417.60350189 -252.35339355 417.59745789 C-259.06167488 417.5393489 -265.76964385 417.4671694 -272.47760773 417.37951946 C-275.92555871 417.33495395 -279.37339531 417.2956685 -282.8215332 417.26879883 C-286.7934646 417.237609 -290.76490849 417.18282561 -294.73657227 417.12695312 C-295.96396118 417.1205632 -297.1913501 417.11417328 -298.45593262 417.10758972 C-306.37928109 416.97245608 -312.6335474 416.47265427 -319.01782227 411.36523438 C-322.81712589 406.58896696 -324.83756158 401.92712974 -324.54907227 395.72460938 C-323.4476257 388.96573273 -320.38968064 384.02867748 -315.08032227 379.79492188 C-313.19214596 378.60694428 -311.51662484 378.01122432 -309.39282227 377.36523438 C-306.02721559 375.99439704 -306.02721559 375.99439704 -305.45654297 373.25683594 C-305.30789795 372.34901367 -305.15925293 371.44119141 -305.00610352 370.50585938 C-304.84924072 369.59352539 -304.69237793 368.68119141 -304.53076172 367.74121094 C-304.4233667 367.03963867 -304.31597168 366.33806641 -304.20532227 365.61523438 C-305.11822021 365.64141846 -306.03111816 365.66760254 -306.97167969 365.69458008 C-310.37304571 365.7800198 -313.77326484 365.84258437 -317.17529297 365.88989258 C-318.64487752 365.91497081 -320.11433814 365.94904293 -321.58349609 365.99243164 C-323.70123908 366.05338936 -325.81732803 366.08150753 -327.93579102 366.10351562 C-329.2083374 366.12969971 -330.48088379 366.15588379 -331.79199219 366.18286133 C-336.11484301 365.4639837 -337.58304608 364.06464425 -340.20532227 360.61523438 C-340.26908795 356.91682463 -340.2026287 354.67636475 -337.61450195 351.92260742 C-334.29973454 350.12380528 -331.2675301 350.24118875 -327.59594727 350.32226562 C-326.86913757 350.32651047 -326.14232788 350.33075531 -325.39349365 350.33512878 C-323.08038722 350.35187308 -320.76816372 350.38951552 -318.45532227 350.42773438 C-316.8837203 350.44278679 -315.31210462 350.45647423 -313.74047852 350.46875 C-309.89508812 350.50176242 -306.0503547 350.55351382 -302.20532227 350.61523438 C-301.87532227 345.99523437 -301.54532227 341.37523437 -301.20532227 336.61523438 C-303.42605469 336.60065186 -305.64678711 336.58606934 -307.93481445 336.57104492 C-315.2711098 336.52071385 -322.60719257 336.45412149 -329.94327927 336.37951946 C-334.3912856 336.33478678 -338.83919973 336.29553715 -343.28735352 336.26879883 C-347.57987507 336.24279461 -351.87204235 336.20241292 -356.16434479 336.15204811 C-357.80215296 336.13535983 -359.44002243 336.12385777 -361.07790375 336.11762047 C-363.37173119 336.10800045 -365.66464827 336.079968 -367.95825195 336.04760742 C-369.26397156 336.03650436 -370.56969116 336.02540131 -371.91497803 336.01396179 C-375.36231126 335.59621028 -376.78775431 335.05732398 -379.20532227 332.61523438 C-379.8982522 329.90898833 -379.69172418 327.35625224 -379.20532227 324.61523438 C-377.66194135 322.44047036 -376.56866953 321.79690801 -374.20532227 320.61523438 C-371.79437864 320.52248042 -369.41263908 320.48938719 -367.00170898 320.50170898 C-365.88936386 320.50148994 -365.88936386 320.50148994 -364.75454712 320.50126648 C-362.29800514 320.50196438 -359.84153854 320.50975104 -357.38500977 320.51757812 C-355.68392986 320.51944274 -353.98284943 320.52086644 -352.2817688 320.52186584 C-347.80025759 320.52568759 -343.3187787 320.53551497 -338.83728027 320.54656982 C-334.26595497 320.5567913 -329.69462445 320.56136505 -325.12329102 320.56640625 C-316.15062056 320.57713753 -307.1779741 320.59420986 -298.20532227 320.61523438 C-298.22594727 319.39835937 -298.24657227 318.18148438 -298.26782227 316.92773438 C-298.27356343 313.69546115 -297.99298541 310.76588697 -297.20532227 307.61523438 C-298.11837128 307.56072113 -299.03142029 307.50620789 -299.97213745 307.45004272 C-308.95730482 306.88628413 -317.88914614 306.09069532 -326.83813477 305.09179688 C-327.49112423 305.01923046 -328.14411369 304.94666405 -328.81689072 304.87189865 C-332.25312721 304.48975349 -335.68888103 304.10357639 -339.12426758 303.71386719 C-342.65225688 303.31449736 -346.18168347 302.92967908 -349.71161079 302.54787636 C-353.10914015 302.17709242 -356.50471414 301.78953249 -359.90063477 301.40429688 C-361.16207306 301.26980133 -362.42351135 301.13530579 -363.72317505 300.99673462 C-364.89564789 300.86004364 -366.06812073 300.72335266 -367.27612305 300.58251953 C-368.30343536 300.46784332 -369.33074768 300.35316711 -370.38919067 300.23501587 C-373.51987364 299.5460071 -375.60450454 298.47163706 -378.20532227 296.61523438 C-379.62574047 293.77439796 -379.51984499 291.7604616 -379.20532227 288.61523438 C-376.55770956 285.37008844 -374.52419975 284.07900987 -370.44750977 283.26367188 C-368.95586304 282.95357178 -368.95586304 282.95357178 -367.43408203 282.63720703 C-366.32734131 282.42370605 -365.22060059 282.21020508 -364.08032227 281.99023438 C-362.90848389 281.75224121 -361.73664551 281.51424805 -360.52929688 281.26904297 C-357.76627115 280.70822984 -355.00132582 280.15812114 -352.23510742 279.61328125 C-347.41214844 278.66071288 -342.59537862 277.67879771 -337.77874756 276.6947937 C-333.24823245 275.76976812 -328.71658148 274.85040076 -324.18463135 273.93243408 C-321.90885224 273.47139175 -319.63325745 273.0094386 -317.35784912 272.54656982 C-314.12181054 271.88988232 -310.88449486 271.23990509 -307.64672852 270.59179688 C-306.6675798 270.3920929 -305.68843109 270.19238892 -304.67961121 269.9866333 C-303.31283989 269.71505402 -303.31283989 269.71505402 -301.91845703 269.43798828 C-301.1257692 269.27843658 -300.33308136 269.11888489 -299.51637268 268.95449829 C-297.20532227 268.61523438 -297.20532227 268.61523438 -292.20532227 268.61523438 C-291.87532227 264.98523438 -291.54532227 261.35523438 -291.20532227 257.61523438 C-292.09840088 257.60065186 -292.99147949 257.58606934 -293.91162109 257.57104492 C-297.22749504 257.5099636 -300.54254126 257.43580959 -303.85791016 257.3527832 C-305.29236855 257.31954437 -306.72695739 257.29150903 -308.16162109 257.26879883 C-310.22493033 257.23523166 -312.28704529 257.18292024 -314.34985352 257.12695312 C-315.590979 257.10076904 -316.83210449 257.07458496 -318.11083984 257.04760742 C-321.20532227 256.61523438 -321.20532227 256.61523438 -323.08300781 255.23168945 C-324.63797107 252.99209586 -325.011126 251.33398203 -325.20532227 248.61523438 C-324.48291622 245.79128345 -323.99932515 244.16553105 -321.5715332 242.48291016 C-318.31908637 241.29025683 -315.49383721 241.39155802 -312.03344727 241.41992188 C-311.35102966 241.42275177 -310.66861206 241.42558167 -309.96551514 241.42849731 C-307.79526919 241.43965339 -305.62544256 241.46474881 -303.45532227 241.49023438 C-301.98006783 241.50027012 -300.50480689 241.50939493 -299.02954102 241.51757812 C-295.4211783 241.53787263 -291.81371723 241.57702784 -288.20532227 241.61523438 C-287.87532227 236.99523437 -287.54532227 232.37523437 -287.20532227 227.61523438 C-289.25626099 227.63094482 -289.25626099 227.63094482 -291.34863281 227.64697266 C-296.42705664 227.68320452 -301.50546907 227.70614656 -306.58398438 227.72509766 C-308.78094403 227.73514794 -310.97789034 227.74879029 -313.17480469 227.76611328 C-316.33475034 227.79040407 -319.49451895 227.80172732 -322.65454102 227.81054688 C-323.63492844 227.82086945 -324.61531586 227.83119202 -325.62541199 227.84182739 C-334.29315735 227.84324973 -334.29315735 227.84324973 -338.20532227 225.61523438 C-340.19975169 223.07686966 -340.21654856 221.79859723 -340.01782227 218.55273438 C-339.15893423 215.44752377 -338.71445928 214.518949 -336.20532227 212.61523438 C-333.90840149 212.25447083 -333.90840149 212.25447083 -331.18310547 212.2746582 C-330.16227371 212.2748848 -329.14144196 212.27511139 -328.0896759 212.27534485 C-326.43955757 212.29857063 -326.43955757 212.29857063 -324.75610352 212.32226562 C-323.06447334 212.32863289 -323.06447334 212.32863289 -321.33866882 212.33512878 C-317.7314786 212.35194126 -314.12484405 212.3895991 -310.51782227 212.42773438 C-308.07447095 212.44277785 -305.63111089 212.45646684 -303.18774414 212.46875 C-297.19341345 212.50185322 -291.19940755 212.55207844 -285.20532227 212.61523438 C-285.10509766 211.64175049 -285.00487305 210.6682666 -284.90161133 209.6652832 C-284.52363797 206.0384673 -284.12319056 202.41442086 -283.71606445 198.79077148 C-283.54329704 197.22502638 -283.37655252 195.65860407 -283.21606445 194.09155273 C-282.98368773 191.83305184 -282.72942593 189.57791004 -282.47094727 187.32226562 C-282.3706723 186.27822319 -282.3706723 186.27822319 -282.26837158 185.21308899 C-281.701121 180.51823472 -280.59686362 177.90479346 -277.20532227 174.61523438 C-274.04256058 173.99999523 -274.04256058 173.99999523 -270.23248291 174.01396179 C-269.53077776 174.00968967 -268.8290726 174.00541754 -268.10610366 174.00101596 C-265.75473805 173.99277969 -263.40515628 174.0202781 -261.05395508 174.04760742 C-259.36865786 174.04901777 -257.68335757 174.04822617 -255.99806213 174.0453949 C-251.42173007 174.04395881 -246.84605169 174.07337954 -242.26987171 174.10826468 C-237.48795182 174.1394962 -232.70601737 174.14245639 -227.92401123 174.14839172 C-218.86813688 174.1639396 -209.81256391 174.20498085 -200.75682235 174.25513917 C-190.44741572 174.31100326 -180.1379948 174.33851175 -169.82847452 174.36361635 C-148.62058881 174.41589586 -127.41297452 174.50385652 -106.20532227 174.61523438 C-106.21089645 173.65708832 -106.21647064 172.69894226 -106.22221375 171.71176147 C-106.22654922 170.45320343 -106.2308847 169.19464539 -106.23535156 167.89794922 C-106.24092575 166.65105316 -106.24649994 165.4041571 -106.25224304 164.11947632 C-105.93582048 140.48770185 -95.44222906 115.90307289 -81.27172852 97.40039062 C-79.61109921 95.16215112 -78.32332716 93.15060067 -77.20532227 90.61523438 C-77.75961914 90.06996094 -78.31391602 89.5246875 -78.88500977 88.96289062 C-83.68356371 83.96795458 -87.20532227 79.78279537 -87.20532227 72.61523438 C-85.49082852 66.28479593 -79.90620639 61.92437816 -75.20532227 57.61523438 C-74.54016602 56.98488281 -73.87500977 56.35453125 -73.18969727 55.70507812 C-68.91356697 52.02864903 -65.35475294 50.61347737 -59.67016602 50.95507812 C-53.6064741 52.57910972 -49.7463023 57.7206687 -46.20532227 62.61523438 C-42.95697851 61.35369656 -39.83053215 59.9794644 -36.72094727 58.40820312 C-10.96312727 45.61523438 -10.96312727 45.61523438 -0.20532227 45.61523438 C-0.22594727 44.50148437 -0.24657227 43.38773438 -0.26782227 42.24023438 C-0.20532227 38.61523438 -0.20532227 38.61523438 0.79467773 36.61523438 C-0.0928418 36.66744141 -0.0928418 36.66744141 -0.99829102 36.72070312 C-5.96195663 36.89074713 -9.13149603 36.79791113 -13.20532227 33.61523438 C-14.902156 31.91840064 -14.37733266 29.81367484 -14.39282227 27.49023438 C-14.33339934 22.52841988 -14.05253265 17.61023952 -13.51782227 12.67773438 C-13.39020508 11.45183594 -13.26258789 10.2259375 -13.13110352 8.96289062 C-11.1618186 1.84188989 -7.02463834 -0.01133082 0 0 Z " fill="#010101" transform="translate(379.205322265625,36.384765625)"/>
<path d="M0 0 C84.15 0 168.3 0 255 0 C253.80492536 10.15813447 252.58799325 20.2996281 251.25 30.4375 C249.39821398 44.61299375 247.69158033 58.80459758 246 73 C243.86105966 90.92744468 241.6739696 108.84441663 239.29943848 126.74243164 C238.95914366 129.30802979 238.61971256 131.87374163 238.28027344 134.43945312 C237.48059319 140.4807453 236.67838205 146.52169906 235.875 152.5625 C235.74657715 153.52862213 235.6181543 154.49474426 235.48583984 155.49014282 C235.11376753 158.28650624 234.74065579 161.08272896 234.3671875 163.87890625 C234.20487137 165.09921539 234.20487137 165.09921539 234.03927612 166.34417725 C233.07209686 173.57017912 232.03117205 180.78179563 231 188 C186.12 188 141.24 188 95 188 C93.35 185.03 91.7 182.06 90 179 C84.5366383 172.27947765 76.36499381 167.82751968 67.79541016 166.71337891 C52.97962261 165.50137238 42.65452056 168.97863892 30.5703125 177.64453125 C28.21564854 179.80237679 27.12983244 181.42844615 25.50488281 184.09838867 C23.66672594 186.56570569 22.65459457 187.80013597 19.68807983 188.70588684 C16.87747236 188.92527578 14.16824292 188.90050596 11.3515625 188.78125 C10.33903412 188.76993042 9.32650574 188.75861084 8.28329468 188.74694824 C5.06190563 188.70230474 1.84503398 188.60196373 -1.375 188.5 C-3.56373762 188.4598575 -5.75254529 188.42335808 -7.94140625 188.390625 C-13.2960008 188.30260796 -18.6472357 188.16464199 -24 188 C-23.67 184.04 -23.34 180.08 -23 176 C-22.01257813 175.95101562 -21.02515625 175.90203125 -20.0078125 175.8515625 C-18.08582031 175.73941406 -18.08582031 175.73941406 -16.125 175.625 C-14.21074219 175.52058594 -14.21074219 175.52058594 -12.2578125 175.4140625 C-8.91938301 175.32758894 -8.91938301 175.32758894 -7 173 C-6.40742308 168.24707589 -6.40742308 168.24707589 -8.4375 164.125 C-12.18723516 162.47877481 -15.94160374 162.25148182 -20 162 C-20.02730408 160.43759968 -20.04653226 158.8750573 -20.0625 157.3125 C-20.07410156 156.44238281 -20.08570312 155.57226562 -20.09765625 154.67578125 C-20.00043483 152.01191443 -19.59364333 149.59426811 -19 147 C-17.77023438 146.96132813 -17.77023438 146.96132813 -16.515625 146.921875 C-15.43796875 146.86515625 -14.3603125 146.8084375 -13.25 146.75 C-12.18265625 146.70359375 -11.1153125 146.6571875 -10.015625 146.609375 C-6.42038876 145.88287648 -5.15363889 144.93630278 -3 142 C-2.9872962 138.33635192 -2.9872962 138.33635192 -4 135 C-6.56893838 133.71553081 -8.76576337 133.67022856 -11.625 133.4375 C-13.39875 133.293125 -15.1725 133.14875 -17 133 C-16.67 129.04 -16.34 125.08 -16 121 C-7.70825405 120.79933545 0.31584962 121.45741564 8.53329468 122.48156738 C10.74128245 122.75670176 12.95018769 123.02317476 15.15942383 123.28808594 C21.99404574 124.11244177 28.82387141 124.97003826 35.64884949 125.87078857 C38.4854461 126.24503521 41.32278573 126.61351167 44.1600647 126.98254395 C46.11710517 127.24071363 48.07263148 127.5102826 50.02807617 127.78027344 C58.51106932 128.89232028 67.45348074 130.02498934 76 129 C77.93509716 126.09735426 78.33276894 125.01143027 78.77783203 121.7121582 C78.95779221 120.42115959 78.95779221 120.42115959 79.14138794 119.1040802 C79.3227681 117.71644722 79.3227681 117.71644722 79.5078125 116.30078125 C79.63815887 115.35059616 79.76850525 114.40041107 79.90280151 113.4214325 C80.31748922 110.38606008 80.72136519 107.34935998 81.125 104.3125 C81.40423715 102.25446073 81.68417646 100.1965166 81.96484375 98.13867188 C82.65138203 93.0935158 83.32822733 88.04714248 84 83 C84.90566711 82.99635437 85.81133423 82.99270874 86.7444458 82.98895264 C95.27878335 82.95108885 103.81273812 82.89425461 112.34680557 82.81609726 C116.7343114 82.77658478 121.12161541 82.74441497 125.50927734 82.72900391 C129.74352024 82.7138619 133.97720841 82.67946081 138.21120453 82.63169098 C139.82667978 82.61685167 141.44223422 82.60895752 143.0577774 82.60811615 C145.32069565 82.60575226 147.58207361 82.57872295 149.84472656 82.54589844 C151.13268127 82.53701599 152.42063599 82.52813354 153.74761963 82.51898193 C157.56630383 81.90963497 158.74647732 81.09511207 161 78 C161.74185698 76.10294685 161.74185698 76.10294685 161.91308594 74.0769043 C162.01288757 73.31899094 162.11268921 72.56107758 162.21551514 71.78019714 C162.30423889 70.96972427 162.39296265 70.1592514 162.484375 69.32421875 C162.58969543 68.4808345 162.69501587 67.63745026 162.80352783 66.76850891 C163.13511936 64.07651257 163.44230937 61.382321 163.75 58.6875 C163.97117425 56.88588515 164.19381507 55.0844497 164.41796875 53.28320312 C164.62893534 51.54703624 164.83861276 49.81071211 165.046875 48.07421875 C165.19210602 46.86761848 165.19210602 46.86761848 165.340271 45.63664246 C166.77893716 37.63848957 166.77893716 37.63848957 164.82141876 30.32920742 C162.33339273 28.51353344 160.67751222 28.61997109 157.61022949 28.61231995 C155.93192299 28.597463 155.93192299 28.597463 154.2197113 28.58230591 C152.37748741 28.58905838 152.37748741 28.58905838 150.49804688 28.59594727 C148.55878075 28.58565239 148.55878075 28.58565239 146.58033752 28.57514954 C143.03283454 28.5571844 139.48557844 28.55839255 135.93804359 28.56409192 C132.9781317 28.56717858 130.01826759 28.56109726 127.05836248 28.55505317 C120.07711672 28.54099891 113.0959933 28.54257702 106.11474609 28.55395508 C98.90791452 28.56544109 91.70145486 28.55135487 84.4946723 28.5245586 C78.31030066 28.50242322 72.12604596 28.49575919 65.94163752 28.50163502 C62.24651847 28.50501057 58.55163793 28.50255011 54.85655212 28.48538399 C50.73811164 28.46708654 46.62039815 28.48107943 42.50195312 28.49829102 C41.27380386 28.48862305 40.0456546 28.47895508 38.7802887 28.46899414 C37.10198219 28.48374535 37.10198219 28.48374535 35.38977051 28.49879456 C33.92858166 28.49910848 33.92858166 28.49910848 32.43787384 28.49942875 C29.85571204 28.78631121 29.85571204 28.78631121 28.19755077 30.91109753 C26.97201347 33.04881725 26.50001971 34.51335373 26.20043945 36.94238281 C26.10056229 37.70286926 26.00068512 38.46335571 25.89778137 39.24688721 C25.80389633 40.05744568 25.71001129 40.86800415 25.61328125 41.703125 C25.50654587 42.54091492 25.39981049 43.37870483 25.2898407 44.24188232 C24.95258945 46.90996697 24.63234032 49.57977791 24.3125 52.25 C24.08640554 54.06263994 23.85920467 55.87514223 23.63085938 57.6875 C23.07440308 62.12350689 22.53318237 66.56113808 22 71 C17.92695797 71.88276501 13.85189804 72.75529353 9.7746582 73.6184082 C8.38799058 73.91345422 7.001913 74.21128765 5.61645508 74.51196289 C3.62469725 74.94371262 1.6310314 75.36538774 -0.36328125 75.78515625 C-2.16212769 76.17006226 -2.16212769 76.17006226 -3.99731445 76.56274414 C-7 77 -7 77 -10 76 C-9.67 73.36 -9.34 70.72 -9 68 C-7.77023438 67.94392578 -7.77023438 67.94392578 -6.515625 67.88671875 C-5.43796875 67.82097656 -4.3603125 67.75523437 -3.25 67.6875 C-2.18265625 67.62949219 -1.1153125 67.57148438 -0.015625 67.51171875 C3.22176173 66.96236945 4.69854492 66.31244054 7 64 C7.45127493 60.90554332 7.68489184 58.96113155 5.828125 56.35546875 C3.33260612 54.50515881 1.38907417 54.49347495 -1.6875 54.3125 C-3.440625 54.209375 -5.19375 54.10625 -7 54 C-6.34 48.72 -5.68 43.44 -5 38 C-3.1025 37.896875 -1.205 37.79375 0.75 37.6875 C5.10406089 37.45086626 7.84935592 37.15814561 11 34 C11.66666667 31 11.66666667 31 11 28 C8.07239635 25.17311666 5.75193524 24.57578521 1.75 24.3125 C0.41195312 24.21388672 0.41195312 24.21388672 -0.953125 24.11328125 C-1.62859375 24.07589844 -2.3040625 24.03851563 -3 24 C-2.69329496 20.56195706 -2.3786405 17.12468713 -2.0625 13.6875 C-1.97548828 12.71103516 -1.88847656 11.73457031 -1.79882812 10.72851562 C-1.71181641 9.79072266 -1.62480469 8.85292969 -1.53515625 7.88671875 C-1.456604 7.02264404 -1.37805176 6.15856934 -1.29711914 5.26831055 C-1 3 -1 3 0 0 Z " fill="#68A6FE" transform="translate(112,225)"/>
<path d="M0 0 C2.54434886 2.22010651 4.9619442 4.51725071 7.35546875 6.8984375 C7.98195313 7.49011719 8.6084375 8.08179688 9.25390625 8.69140625 C20.19278327 19.90251777 25.52115089 36.35849155 25.73046875 51.7109375 C25.45812259 73.7524676 16.88676526 92.7204086 3.35546875 109.8984375 C-0.51953125 108.0234375 -0.51953125 108.0234375 -1.64453125 106.8984375 C-3.51549236 106.77499723 -5.39104053 106.72051356 -7.26586914 106.69311523 C-8.46703873 106.67317001 -9.66820831 106.65322479 -10.90577698 106.63267517 C-12.21304245 106.61596268 -13.52030792 106.59925018 -14.8671875 106.58203125 C-16.21097972 106.56146792 -17.55476537 106.54047162 -18.89854431 106.51905823 C-22.44128112 106.46377331 -25.98407692 106.41439252 -29.5269165 106.36621094 C-33.13974275 106.31604263 -36.75248297 106.26033225 -40.36523438 106.20507812 C-47.45825872 106.09741813 -54.55136013 105.9959907 -61.64453125 105.8984375 C-61.65427488 104.29932856 -61.66122311 102.70020243 -61.66699219 101.10107422 C-61.6711615 100.21056366 -61.67533081 99.3200531 -61.67962646 98.40255737 C-61.62717968 94.66036517 -61.05359751 91.03380284 -60.47265625 87.34375 C-60.42848852 84.78141802 -60.42848852 84.78141802 -62.25396729 82.77972412 C-65.3559513 80.33857588 -67.14363414 80.38294058 -71.06542969 80.35253906 C-73.01699982 80.32296112 -73.01699982 80.32296112 -75.00799561 80.29278564 C-76.42329872 80.2911226 -77.8386024 80.28989167 -79.25390625 80.2890625 C-80.70552414 80.27407878 -82.15712499 80.25735121 -83.60870361 80.23895264 C-87.42271716 80.19528752 -91.23650076 80.17528221 -95.05072021 80.16021729 C-98.94541008 80.14064292 -102.83985172 80.09867338 -106.734375 80.05859375 C-114.37102701 79.98330095 -122.00757479 79.93300423 -129.64453125 79.8984375 C-129.68528431 76.88006983 -129.71490997 73.86226181 -129.73828125 70.84375 C-129.75084961 69.99723877 -129.76341797 69.15072754 -129.77636719 68.27856445 C-129.90091411 46.78384078 -117.61625084 27.32215061 -103.33203125 12.1484375 C-76.60467297 -13.410767 -31.08864984 -24.70560356 0 0 Z " fill="#D3E1EF" transform="translate(441.64453125,131.1015625)"/>
<path d="M0 0 C6.93 0 13.86 0 21 0 C21 5.14668348 20.92810387 9.54470842 20.265625 14.54296875 C20.10545898 15.76822266 19.94529297 16.99347656 19.78027344 18.25585938 C19.6052832 19.55330078 19.43029297 20.85074219 19.25 22.1875 C19.07022284 23.55137763 18.8908676 24.91531093 18.71191406 26.27929688 C17.79005002 33.27045653 16.82921132 40.25582317 15.84375 47.23828125 C15.66038086 48.54321533 15.47701172 49.84814941 15.28808594 51.19262695 C14.93689957 53.67754142 14.58099467 56.16179491 14.21972656 58.64526367 C12.58810785 68.39387501 12.58810785 68.39387501 14 78 C15.14512558 77.98143951 16.29025116 77.96287903 17.47007751 77.9437561 C28.28373075 77.77768069 39.09583494 77.68580331 49.91077328 77.66578102 C55.47073727 77.65312369 61.02799347 77.61471771 66.5871582 77.51660156 C71.95678797 77.42279218 77.32281704 77.39775207 82.69317818 77.41953659 C84.73738127 77.41590833 86.78169704 77.38787196 88.82520866 77.33458328 C104.25274913 76.95508907 104.25274913 76.95508907 108.77492142 80.32115936 C113.29078406 85.08245188 116.15525436 90.66430375 116.229599 97.30630493 C116.05748178 100.07525655 115.87049069 102.38852794 115 105 C114.19780029 105.02505615 113.39560059 105.0501123 112.5690918 105.07592773 C108.94172926 105.19182043 105.31463083 105.31457751 101.6875 105.4375 C100.42486328 105.47681641 99.16222656 105.51613281 97.86132812 105.55664062 C96.65283203 105.59853516 95.44433594 105.64042969 94.19921875 105.68359375 C92.52605591 105.73858032 92.52605591 105.73858032 90.8190918 105.79467773 C87.92126429 105.88931209 87.92126429 105.88931209 85 107 C84.49089578 110.49873754 83.994394 113.99915601 83.5 117.5 C83.35691406 118.48226562 83.21382813 119.46453125 83.06640625 120.4765625 C81.1782513 130.63724823 81.1782513 130.63724823 84 140 C86.71004503 140.510605 86.71004503 140.510605 89.8828125 140.51171875 C91.04941406 140.54716797 92.21601563 140.58261719 93.41796875 140.61914062 C95.25294922 140.65297852 95.25294922 140.65297852 97.125 140.6875 C98.35605469 140.72166016 99.58710938 140.75582031 100.85546875 140.79101562 C103.9035551 140.87371564 106.95134571 140.94279427 110 141 C109.85796663 143.37528151 109.71148388 145.75015251 109.5625 148.125 C109.52318359 148.79015625 109.48386719 149.4553125 109.44335938 150.140625 C109.18762583 154.15367449 108.68920522 158.04136221 108 162 C103.45969019 162.29110292 98.92177372 162.4682147 94.375 162.625 C93.08980469 162.70878906 91.80460937 162.79257812 90.48046875 162.87890625 C86.7448188 162.97568475 83.61960973 162.94476597 80 162 C77.701952 159.65089621 76.51748496 157.55217402 75.22216797 154.54394531 C72.18080243 148.21333625 64.56378734 143.98638087 58.12890625 141.66015625 C45.68000445 139.03360893 32.97303615 140.03971705 22.10546875 146.80078125 C16.17340646 150.89048952 10.29207692 155.41584616 7 162 C-1.91 162 -10.82 162 -20 162 C-17.69949417 140.05953747 -15.23650804 118.16222086 -12.30725098 96.29541016 C-11.84799305 92.86438671 -11.39108282 89.43305103 -10.93386841 86.00175476 C-10.0304206 79.22196975 -9.12598363 72.44231712 -8.22021484 65.6628418 C-3.81475168 32.86764927 -3.81475168 32.86764927 0 0 Z " fill="#F94354" transform="translate(377,251)"/>
<path d="M0 0 C37.29 0 74.58 0 113 0 C111.875 14.625 111.875 14.625 110.9375 20.8125 C110.67259766 22.58560547 110.67259766 22.58560547 110.40234375 24.39453125 C110.26957031 25.25433594 110.13679687 26.11414063 110 27 C109.0795842 27.00364563 108.1591684 27.00729126 107.21086121 27.01104736 C98.54376965 27.04888806 89.8770559 27.10569582 81.21023083 27.18390274 C76.75431516 27.22344008 72.29859895 27.25559763 67.8425293 27.27099609 C63.54345569 27.2861218 59.24493023 27.3204936 54.94610023 27.36830902 C53.30467806 27.38316523 51.66317765 27.39104344 50.02168846 27.39188385 C47.72504365 27.39424268 45.42992717 27.42123091 43.13354492 27.45410156 C41.82560471 27.46298401 40.51766449 27.47186646 39.17008972 27.48101807 C35.9585957 27.70202836 35.9585957 27.70202836 34.10313416 29.79841614 C32.42325364 33.15104358 32.08013807 36.63132984 31.6484375 40.30859375 C31.54407379 41.11232925 31.43971008 41.91606476 31.33218384 42.74415588 C31.00168341 45.30729878 30.68787668 47.87215191 30.375 50.4375 C30.05138689 52.99871475 29.72439111 55.55947592 29.39639282 58.12013245 C29.1938124 59.71129386 28.99442436 61.30286591 28.79867554 62.8948822 C28.33450148 66.63251561 27.80627448 70.31983532 27 74 C12.9113611 72.83031127 -1.10590113 71.16866143 -15.13320923 69.43167114 C-33.40172345 67.17075964 -51.68586264 65.05594692 -69.97485352 62.96777344 C-71.59640602 62.78214844 -71.59640602 62.78214844 -73.25071716 62.59277344 C-75.27564739 62.36106535 -77.30067572 62.13021221 -79.32582092 61.90039062 C-84.23006499 61.33923237 -89.11762386 60.72785983 -94 60 C-94 59.34 -94 58.68 -94 58 C-93.21977982 57.84823807 -92.43955963 57.69647614 -91.63569641 57.54011536 C-84.18029379 56.08913653 -76.72574707 54.633863 -69.27206135 53.17409229 C-65.44263467 52.42426444 -61.61292863 51.67593986 -57.7824707 50.93139648 C-49.79851398 49.37864317 -41.81880932 47.80795786 -33.84890938 46.18440437 C-30.73569292 45.55038407 -27.62128076 44.92710509 -24.50140381 44.32659912 C-21.50867457 43.74965677 -18.52590816 43.13697808 -15.54296875 42.51171875 C-14.27601921 42.28135674 -14.27601921 42.28135674 -12.98347473 42.04634094 C-10.39395447 41.54606205 -10.39395447 41.54606205 -7 40 C-1.667924 27.55848933 -1.62880062 13.4376051 0 0 Z " fill="#FCA731" transform="translate(151,267)"/>
<path d="M0 0 C0.90234375 0.64453125 1.8046875 1.2890625 2.734375 1.953125 C20.26634298 15.32496498 30.036499 34.4859282 34.58203125 55.71875 C38.29633282 84.87775298 30.23582189 113.36061422 12.86328125 136.89453125 C10.95970871 139.31297484 9.00795969 141.66790425 7 144 C6.39542969 144.71414062 5.79085937 145.42828125 5.16796875 146.1640625 C3.78916328 147.78504692 2.39639625 149.39414431 1 151 C-0.97462925 149.21646391 -2.66942994 147.61430937 -3.9375 145.2578125 C-4.04089093 141.52281524 -1.38558311 139.31182264 0.9375 136.625 C17.63825045 116.28137004 26.16522804 91.37812591 24 65 C22.91540867 55.40194986 20.18201443 46.67558293 16 38 C15.58105469 37.08734375 15.16210938 36.1746875 14.73046875 35.234375 C6.04467976 17.71261046 -10.49429542 4.97080219 -28.76171875 -1.2890625 C-44.40549181 -5.91070853 -63.08856759 -7.48717867 -79 -3 C-79.90878906 -2.75507812 -80.81757813 -2.51015625 -81.75390625 -2.2578125 C-109.32690518 6.03978771 -132.41798273 24.77044074 -146.40625 49.84375 C-154.77088962 66.4090167 -157.43158385 82.61467778 -158 101 C-161.3 101 -164.6 101 -168 101 C-168.77650741 69.81028578 -157.41431474 42.95830251 -136.23583984 20.26123047 C-101.63053706 -15.64402803 -42.7749744 -30.99264612 0 0 Z " fill="#F7A330" transform="translate(456,110)"/>
<path d="M0 0 C7.24908422 -1.12232745 14.8637314 -2.10910499 22 0 C26.97438511 3.81885868 29.28153264 9.93702474 31.80664062 15.51171875 C33.66684771 19.39044843 36.03580938 22.87810822 38.4375 26.4375 C39.34915303 27.83020315 40.25797583 29.22476276 41.1640625 30.62109375 C41.62329102 31.32733887 42.08251953 32.03358398 42.55566406 32.76123047 C45.66846684 37.58618001 48.71607972 42.45286329 51.76538086 47.31811523 C54.70834592 52.00128605 57.74072676 56.60300767 60.88745117 61.15234375 C62 63 62 63 62 65 C39.23 65 16.46 65 -7 65 C-7 51.4997287 -7 51.4997287 -6.23046875 45.8203125 C-6.06514648 44.5712915 -5.89982422 43.32227051 -5.72949219 42.03540039 C-5.46120605 40.0997522 -5.46120605 40.0997522 -5.1875 38.125 C-5.00485089 36.7662863 -4.8228928 35.40747953 -4.64160156 34.04858398 C-4.27727989 31.32877189 -3.90835777 28.60965403 -3.53466797 25.89111328 C-3.04003671 22.2913722 -2.55191402 18.69082484 -2.06640625 15.08984375 C-1.38629402 10.05867112 -0.69655574 5.02892139 0 0 Z " fill="#68A6FE" transform="translate(412,251)"/>
<path d="M0 0 C3.3 0 6.6 0 10 0 C8.85266097 10.15998908 7.57680097 20.29953439 6.25 30.4375 C4.39971659 44.6132021 2.69158303 58.80457489 1 73 C-1.13894034 90.92744468 -3.3260304 108.84441663 -5.70056152 126.74243164 C-6.04085634 129.30802979 -6.38028744 131.87374163 -6.71972656 134.43945312 C-7.51940681 140.4807453 -8.32161795 146.52169906 -9.125 152.5625 C-9.25342285 153.52862213 -9.3818457 154.49474426 -9.51416016 155.49014282 C-9.88623247 158.28650624 -10.25934421 161.08272896 -10.6328125 163.87890625 C-10.74102325 164.69244568 -10.84923401 165.50598511 -10.96072388 166.34417725 C-11.92790314 173.57017912 -12.96882795 180.78179563 -14 188 C-58.88 188 -103.76 188 -150 188 C-151.32 185.36 -152.64 182.72 -154 180 C-110.77 180 -67.54 180 -23 180 C-22.34 173.4 -21.68 166.8 -21 160 C-20.015625 152.3515625 -20.015625 152.3515625 -19.51367188 148.72363281 C-18.95597881 144.6808882 -18.43484302 140.63454415 -17.921875 136.5859375 C-17.73189633 135.09268644 -17.54187255 133.59944113 -17.35180664 132.10620117 C-17.25417023 131.33843353 -17.15653381 130.57066589 -17.05593872 129.77963257 C-15.58912261 118.25067739 -14.10751117 106.7242349 -12.55078125 95.20703125 C-12.36816238 93.85489029 -12.36816238 93.85489029 -12.18185425 92.47543335 C-12.05932281 91.56830597 -11.93679138 90.66117859 -11.81054688 89.7265625 C-11.56115928 87.88021355 -11.31181049 86.03385936 -11.0625 84.1875 C-10.93866943 83.27081543 -10.81483887 82.35413086 -10.68725586 81.40966797 C-8.26763407 63.44832776 -6.09459943 45.46019242 -4.00415039 27.45776367 C-3.88473587 26.44019485 -3.76532135 25.42262604 -3.64228821 24.3742218 C-3.42126126 22.49003955 -3.20297094 20.60553299 -2.98820496 18.72062683 C-2.24698481 12.42360508 -1.18085111 6.22989941 0 0 Z " fill="#4B8DE9" transform="translate(357,225)"/>
<path d="M0 0 C6.56706215 4.16527006 10.65575182 9.42038045 13.12109375 16.81640625 C14.39344463 26.20429244 11.15362637 34.18240202 5.77734375 41.74609375 C-0.10660076 49.10102439 -7.16134893 53.16970579 -16.57421875 54.234375 C-23.22343933 54.47892884 -28.82034064 54.54662352 -34.234375 50.37109375 C-40.60348895 44.34993615 -43.84971086 39.55975361 -44.25390625 30.56640625 C-44.00495856 20.88365135 -40.15961325 13.97936273 -33.4765625 7.08984375 C-24.32952862 -0.91553026 -11.69127739 -4.8065903 0 0 Z " fill="#010202" transform="translate(183.87890625,406.18359375)"/>
<path d="M0 0 C4.13057366 3.29485295 7.76295491 7.37376386 9.6796875 12.33984375 C10.84483812 23.85586735 9.45749442 33.02621133 2.0546875 42.15234375 C-3.32864631 47.85887959 -10.68352583 51.95066501 -18.578125 52.61328125 C-26.51465921 52.82171548 -33.0280977 52.77216802 -39.3203125 47.33984375 C-45.25388682 41.03999941 -46.92066086 34.10020564 -46.76171875 25.5703125 C-45.66143988 17.5178291 -41.22404922 10.23443446 -35.25 4.8046875 C-25.48874325 -2.60517339 -11.30890278 -6.81931691 0 0 Z " fill="#010202" transform="translate(436.3203125,407.66015625)"/>
<path d="M0 0 C54.78 0 109.56 0 166 0 C165.67 3.63 165.34 7.26 165 11 C110.22 11 55.44 11 -1 11 C-0.67 7.37 -0.34 3.74 0 0 Z " fill="#D4E2F1" transform="translate(211,427)"/>
<path d="M0 0 C0.8552124 -0.00571014 1.7104248 -0.01142029 2.59155273 -0.01730347 C4.00200363 -0.01898026 4.00200363 -0.01898026 5.44094849 -0.02069092 C6.42967957 -0.02565582 7.41841064 -0.03062073 8.43710327 -0.03573608 C11.71850268 -0.05037994 14.99985376 -0.05716323 18.28128052 -0.06268311 C20.55570477 -0.06843249 22.83012901 -0.07419025 25.10455322 -0.07995605 C29.87782009 -0.09047222 34.65107009 -0.09631093 39.42434692 -0.09979248 C45.54691059 -0.10528011 51.66925218 -0.12931143 57.79174614 -0.15776443 C62.49113623 -0.17636827 67.19047258 -0.1815952 71.88989639 -0.18312836 C74.14738302 -0.18616024 76.40486857 -0.1942067 78.66231918 -0.20731354 C81.81786858 -0.22432758 84.9728721 -0.22250507 88.12844849 -0.21600342 C89.06470062 -0.2252182 90.00095276 -0.23443298 90.96557617 -0.243927 C97.27751195 -0.20309288 97.27751195 -0.20309288 100.46710205 1.51818848 C102.47569062 3.77006132 102.84383947 5.11953927 102.91409302 8.14044189 C100.63698458 13.77899611 100.63698458 13.77899611 97.91409302 15.14044189 C96.55482873 15.23817461 95.19094848 15.27544356 93.82818604 15.28088379 C92.54536743 15.28944901 92.54536743 15.28944901 91.2366333 15.29818726 C89.8261824 15.29986404 89.8261824 15.29986404 88.38723755 15.30157471 C87.39850647 15.30653961 86.40977539 15.31150452 85.39108276 15.31661987 C82.10968335 15.33126373 78.82833228 15.33804702 75.54690552 15.34356689 C73.27248126 15.34931628 70.99805703 15.35507404 68.72363281 15.36083984 C63.95036594 15.37135601 59.17711594 15.37719472 54.40383911 15.38067627 C48.28127545 15.38616389 42.15893386 15.41019522 36.0364399 15.43864822 C31.3370498 15.45725206 26.63771345 15.46247899 21.93828964 15.46401215 C19.68080302 15.46704403 17.42331746 15.47509049 15.16586685 15.48819733 C12.01031745 15.50521137 8.85531393 15.50338886 5.69973755 15.49688721 C4.76348541 15.50610199 3.82723328 15.51531677 2.86260986 15.52481079 C-3.43244918 15.48408585 -3.43244918 15.48408585 -6.63891602 13.79785156 C-8.81615675 11.30400058 -9.0204163 9.41497621 -9.08590698 6.14044189 C-6.83617884 1.31959587 -5.20180072 0.02076592 0 0 Z " fill="#000000" transform="translate(169.08590698242188,150.85955810546875)"/>
<path d="M0 0 C14.36907537 2.88036135 26.68445493 16.53827505 34.73632812 28.07470703 C48.25851693 48.67671261 51.87681752 72.96944469 48 97.125 C43.54531828 117.29596536 34.45245354 135.3759764 21 151 C20.39542969 151.71414062 19.79085938 152.42828125 19.16796875 153.1640625 C17.78916328 154.78504692 16.39639625 156.39414431 15 158 C13.02537075 156.21646391 11.33057006 154.61430937 10.0625 152.2578125 C9.95910907 148.52281524 12.61441689 146.31182264 14.9375 143.625 C34.19085252 120.17197732 40.40961949 92.95081721 38 63 C34.94488524 40.48444074 21.92001176 17.77020135 3.9375 3.9375 C3.18339844 3.38964844 2.42929687 2.84179688 1.65234375 2.27734375 C1.10707031 1.85582031 0.56179688 1.43429688 0 1 C0 0.67 0 0.34 0 0 Z " fill="#E69900" transform="translate(442,103)"/>
<path d="M0 0 C0.73528427 -0.00846954 1.47056854 -0.01693909 2.22813416 -0.02566528 C4.66015898 -0.04907572 7.09155264 -0.05005652 9.52368164 -0.04882812 C11.21375279 -0.05592737 12.90382152 -0.06362601 14.59388733 -0.07189941 C18.13720396 -0.08535354 21.68029776 -0.0869089 25.22363281 -0.08105469 C29.76476056 -0.07515804 34.30481937 -0.10574337 38.84574032 -0.14617157 C42.33648948 -0.17201983 45.82698029 -0.17492863 49.31781197 -0.17127991 C50.99197641 -0.17297391 52.66615243 -0.18264346 54.34022331 -0.20042419 C56.68197037 -0.22255864 59.02154172 -0.21294302 61.36328125 -0.1953125 C62.05484314 -0.20857574 62.74640503 -0.22183899 63.45892334 -0.23550415 C67.09580266 -0.17187227 68.51918861 0.20657366 71.20777893 2.73181152 C72.74633789 5.41992188 72.74633789 5.41992188 72.74633789 9.04492188 C71.61397577 12.86664402 71.14998497 13.54321878 67.74633789 15.41992188 C64.48963928 15.81433105 64.48963928 15.81433105 60.57861328 15.83984375 C59.86429642 15.84831329 59.14997955 15.85678284 58.41401672 15.86550903 C56.05716049 15.8888721 53.70095733 15.88990143 51.34399414 15.88867188 C49.70258829 15.89577384 48.06118492 15.90347289 46.41978455 15.91174316 C42.98079526 15.9251863 39.54203554 15.92675753 36.10302734 15.92089844 C31.69989691 15.91500198 27.29786899 15.94559128 22.89495182 15.98601532 C19.50538721 16.01188772 16.11608826 16.01477021 12.72643852 16.01112366 C11.1033393 16.01281532 9.48022786 16.02246237 7.85722542 16.04026794 C5.58522259 16.06245104 3.3154534 16.05276256 1.04345703 16.03515625 C-0.89369423 16.03823792 -0.89369423 16.03823792 -2.86997986 16.04138184 C-7.14248541 15.2566772 -8.65167677 13.8419684 -11.25366211 10.41992188 C-11.25366211 6.97927776 -11.05798872 4.64162107 -9.14451599 1.73522949 C-6.2779588 -0.25879265 -3.36986753 -0.01423867 0 0 Z " fill="#000000" transform="translate(195.253662109375,180.580078125)"/>
<path d="M0 0 C0.70470932 -0.00700928 1.40941864 -0.01401855 2.13548279 -0.02124023 C4.45466026 -0.03878192 6.77260796 -0.02721235 9.09179688 -0.01367188 C10.70935296 -0.01636792 12.32690746 -0.02025128 13.94445801 -0.02526855 C17.33047961 -0.03115837 20.71607842 -0.0226177 24.10205078 -0.00390625 C28.43667505 0.01888347 32.77030861 0.00575755 37.10489655 -0.01819611 C40.4438622 -0.03266833 43.78259397 -0.02804167 47.12156677 -0.01768494 C48.71951923 -0.01502156 50.31749309 -0.01827372 51.91542053 -0.02760315 C54.15121489 -0.03779284 56.38541759 -0.02223679 58.62109375 0 C59.89174683 0.00318237 61.1623999 0.00636475 62.47155762 0.00964355 C66.40561732 0.60810158 68.0814688 1.65689355 70.81054688 4.51757812 C71.43231949 8.38638551 71.55876491 10.48248635 69.23010254 13.70397949 C65.90505288 16.19629889 63.6687248 16.02512547 59.53515625 16.03515625 C58.80947952 16.04216553 58.0838028 16.0491748 57.33613586 16.05639648 C54.94179815 16.07397529 52.54864622 16.06235519 50.15429688 16.04882812 C48.48807549 16.0515231 46.82185565 16.05540556 45.15563965 16.0604248 C41.66529349 16.06631966 38.17535708 16.05775762 34.68505859 16.0390625 C30.21243425 16.01627258 25.74076997 16.02939578 21.26818085 16.05335236 C17.82803115 16.0678109 14.38810884 16.06320417 10.94795227 16.05284119 C9.29893378 16.05017404 7.6498946 16.05344328 6.00090027 16.0627594 C3.69535696 16.07292642 1.3913653 16.05742427 -0.9140625 16.03515625 C-2.22548218 16.03197388 -3.53690186 16.0287915 -4.88806152 16.0255127 C-8.18945312 15.51757812 -8.18945312 15.51757812 -10.60900879 13.70397949 C-12.93767116 10.48248635 -12.81122574 8.38638551 -12.18945312 4.51757812 C-8.33501876 0.4772683 -5.47448868 0.01371095 0 0 Z " fill="#000000" transform="translate(204.189453125,120.482421875)"/>
<path d="M0 0 C6.56706215 4.16527006 10.65575182 9.42038045 13.12109375 16.81640625 C14.39344463 26.20429244 11.15362637 34.18240202 5.77734375 41.74609375 C-0.10660076 49.10102439 -7.16134893 53.16970579 -16.57421875 54.234375 C-23.22343933 54.47892884 -28.82034064 54.54662352 -34.234375 50.37109375 C-40.60348895 44.34993615 -43.84971086 39.55975361 -44.25390625 30.56640625 C-44.00495856 20.88365135 -40.15961325 13.97936273 -33.4765625 7.08984375 C-24.32952862 -0.91553026 -11.69127739 -4.8065903 0 0 Z M-30.75390625 13.69140625 C-35.16095552 19.15253337 -36.47793898 24.25165966 -36.3203125 31.21875 C-35.40273428 36.61865724 -32.27508784 40.65342968 -28.2734375 44.265625 C-23.51560441 47.48648588 -18.44068473 47.63406434 -12.87890625 46.81640625 C-5.66046122 44.93230967 -1.05530551 40.90303358 3.12109375 34.81640625 C5.45714719 30.04273183 5.94687685 25.0463659 5.12109375 19.81640625 C3.33296501 14.83519049 1.07726673 11.00740503 -3.56640625 8.31640625 C-4.65953125 7.82140625 -5.75265625 7.32640625 -6.87890625 6.81640625 C-7.53890625 6.48640625 -8.19890625 6.15640625 -8.87890625 5.81640625 C-18.16304005 4.76374424 -24.40103614 6.85388419 -30.75390625 13.69140625 Z " fill="#4A688A" transform="translate(183.87890625,406.18359375)"/>
<path d="M0 0 C4.13057366 3.29485295 7.76295491 7.37376386 9.6796875 12.33984375 C10.84483812 23.85586735 9.45749442 33.02621133 2.0546875 42.15234375 C-3.32864631 47.85887959 -10.68352583 51.95066501 -18.578125 52.61328125 C-26.51465921 52.82171548 -33.0280977 52.77216802 -39.3203125 47.33984375 C-45.25388682 41.03999941 -46.92066086 34.10020564 -46.76171875 25.5703125 C-45.66143988 17.5178291 -41.22404922 10.23443446 -35.25 4.8046875 C-25.48874325 -2.60517339 -11.30890278 -6.81931691 0 0 Z M-34.875 14.33984375 C-38.84601638 19.83487183 -39.06672782 24.67739591 -38.3203125 31.33984375 C-36.41495263 37.55028699 -33.06923607 41.17065527 -27.45703125 44.41796875 C-22.07007363 46.74214059 -15.90416736 45.88020023 -10.5703125 43.77734375 C-4.67548562 40.80910053 -1.00779578 36.44078814 1.5546875 30.40234375 C3.12570183 25.49055798 3.87360368 21.03229669 1.73046875 16.19921875 C-1.48674614 10.7187896 -5.43247694 6.87086232 -11.3203125 4.33984375 C-21.79478495 2.80786309 -28.28227791 6.48990489 -34.875 14.33984375 Z " fill="#4A688A" transform="translate(436.3203125,407.66015625)"/>
<path d="M0 0 C1.98 0 3.96 0 6 0 C5.88161741 1.87542943 5.75475093 3.75032278 5.625 5.625 C5.55539062 6.66914063 5.48578125 7.71328125 5.4140625 8.7890625 C5.08932106 12.63624857 4.52653859 16.44278048 3.97412109 20.26318359 C3.79223236 21.52456146 3.61034363 22.78593933 3.42294312 24.08554077 C3.28337189 25.04731232 3.14380066 26.00908386 3 27 C2.0795842 27.00364563 1.1591684 27.00729126 0.21086121 27.01104736 C-8.45623035 27.04888806 -17.1229441 27.10569582 -25.78976917 27.18390274 C-30.24568484 27.22344008 -34.70140105 27.25559763 -39.1574707 27.27099609 C-43.45654431 27.2861218 -47.75506977 27.3204936 -52.05389977 27.36830902 C-53.69532194 27.38316523 -55.33682235 27.39104344 -56.97831154 27.39188385 C-59.27495635 27.39424268 -61.57007283 27.42123091 -63.86645508 27.45410156 C-65.17439529 27.46298401 -66.48233551 27.47186646 -67.82991028 27.48101807 C-71.0414043 27.70202836 -71.0414043 27.70202836 -72.89686584 29.79841614 C-74.57674636 33.15104358 -74.91986193 36.63132984 -75.3515625 40.30859375 C-75.45592621 41.11232925 -75.56028992 41.91606476 -75.66781616 42.74415588 C-75.99831659 45.30729878 -76.31212332 47.87215191 -76.625 50.4375 C-76.94861311 52.99871475 -77.27560889 55.55947592 -77.60360718 58.12013245 C-77.8061876 59.71129386 -78.00557564 61.30286591 -78.20132446 62.8948822 C-78.66549852 66.63251561 -79.19372552 70.31983532 -80 74 C-94.0886389 72.83031127 -108.10590113 71.16866143 -122.13320923 69.43167114 C-140.40172345 67.17075964 -158.68586264 65.05594692 -176.97485352 62.96777344 C-178.59640602 62.78214844 -178.59640602 62.78214844 -180.25071716 62.59277344 C-182.27564739 62.36106535 -184.30067572 62.13021221 -186.32582092 61.90039062 C-191.23006499 61.33923237 -196.11762386 60.72785983 -201 60 C-201 59.34 -201 58.68 -201 58 C-195.98405211 57.0958998 -191.79913097 57.06947929 -186.76171875 57.7890625 C-185.34299987 57.98386271 -183.92421434 58.17817801 -182.50537109 58.37207031 C-181.76784607 58.47588013 -181.03032104 58.57968994 -180.27044678 58.68664551 C-176.44192641 59.21503669 -172.60567246 59.6791992 -168.76953125 60.1484375 C-167.14371255 60.34916283 -165.51789885 60.54992859 -163.89208984 60.75073242 C-162.19891485 60.95899744 -160.50571771 61.1670825 -158.8125 61.375 C-157.49829071 61.53640976 -157.49829071 61.53640976 -156.15753174 61.70108032 C-141.58329523 63.48599939 -126.99760078 65.13198145 -112.39379883 66.65576172 C-103.23826331 67.61589375 -94.1184707 68.73202737 -85 70 C-85.04125 68.7625 -85.0825 67.525 -85.125 66.25 C-85 61 -85 61 -83 49 C-82.01 40.42 -81.02 31.84 -80 23 C-54.59 23 -29.18 23 -3 23 C-2.67 18.71 -2.34 14.42 -2 10 C-1.38417201 6.63105866 -0.77330933 3.32598089 0 0 Z " fill="#E69901" transform="translate(258,267)"/>
<path d="M0 0 C2.23217773 1.68652344 2.23217773 1.68652344 4 4 C4.22680664 6.56738281 4.22680664 6.56738281 3.84765625 9.453125 C3.7202002 10.51337891 3.59274414 11.57363281 3.46142578 12.66601562 C3.30915527 13.76623047 3.15688477 14.86644531 3 16 C2.74815027 18.14056064 2.49684345 20.28118522 2.24609375 22.421875 C1.97912543 24.5315759 1.70959298 26.64095391 1.4375 28.75 C1.29892578 29.84054688 1.16035156 30.93109375 1.01757812 32.0546875 C0.68067711 34.7034265 0.34145904 37.35184543 0 40 C0.75321533 40.2875415 1.50643066 40.57508301 2.2824707 40.87133789 C5.86049271 42.35738548 8.94352509 44.339255 12.1875 46.4375 C13.13012695 47.03014648 13.13012695 47.03014648 14.09179688 47.63476562 C17.10283281 49.57020156 18.98916443 50.98374664 21 54 C21.50734682 57.29775432 21.31057067 58.55803405 19.375 61.3125 C16.15755691 63.59857799 14.93749452 63.52588311 11 63 C7.47698358 61.35127358 4.22677304 59.31933051 0.9375 57.25 C0.05255859 56.71117187 -0.83238281 56.17234375 -1.74414062 55.6171875 C-13.22161092 48.55677817 -13.22161092 48.55677817 -15 45 C-15.3887929 38.26092308 -14.36185638 31.82863947 -13.32519531 25.17919922 C-12.95634828 22.70748107 -12.62958066 20.23177602 -12.3046875 17.75390625 C-12.05742222 15.94008636 -11.81002704 14.12628418 -11.5625 12.3125 C-11.39754028 11.00200684 -11.39754028 11.00200684 -11.22924805 9.66503906 C-11.11363525 8.84358398 -10.99802246 8.02212891 -10.87890625 7.17578125 C-10.73304077 6.07617065 -10.73304077 6.07617065 -10.58422852 4.9543457 C-8.94692991 -0.52270209 -5.16593097 -0.63441257 0 0 Z " fill="#050505" transform="translate(397,152)"/>
<path d="M0 0 C1.06079773 0.00030212 2.12159546 0.00060425 3.21453857 0.00091553 C4.35320374 0.02156067 5.4918689 0.04220581 6.66503906 0.06347656 C7.83576965 0.06913635 9.00650024 0.07479614 10.21270752 0.08062744 C13.95244206 0.10302031 17.69121903 0.15322476 21.43066406 0.20410156 C23.96580648 0.22416268 26.50096391 0.24241412 29.03613281 0.25878906 C35.2513456 0.30289508 41.46584247 0.37194508 47.68066406 0.45410156 C47.35066406 4.08410156 47.02066406 7.71410156 46.68066406 11.45410156 C38.86613192 11.47874113 31.05162218 11.49693261 23.23706055 11.5090332 C20.57624925 11.51407539 17.91544074 11.52090892 15.25463867 11.52954102 C11.43960891 11.54161165 7.62461563 11.54733085 3.80957031 11.55175781 C2.01272545 11.55949974 2.01272545 11.55949974 0.17958069 11.56739807 C-1.47201805 11.56751137 -1.47201805 11.56751137 -3.15698242 11.56762695 C-4.1318309 11.56984756 -5.10667938 11.57206818 -6.11106873 11.57435608 C-8.31933594 11.45410156 -8.31933594 11.45410156 -9.31933594 10.45410156 C-9.71117773 6.92752542 -9.85000277 5.13693601 -7.63226318 2.28326416 C-4.8295292 0.06674128 -3.53357902 -0.03365313 0 0 Z " fill="#D4E2F1" transform="translate(79.3193359375,426.5458984375)"/>
<path d="M0 0 C3.06119294 -0.41402716 5.05035915 -0.68131589 8 0 C10.42325916 2.26228161 11.78555276 5.02139525 13.3125 7.9375 C14.25537935 9.60554438 15.20075357 11.27218061 16.1484375 12.9375 C16.62120117 13.78699219 17.09396484 14.63648438 17.58105469 15.51171875 C19.71546672 19.2546519 22.0654408 22.84224097 24.4375 26.4375 C28.95272209 33.35265372 33.37947032 40.32026267 37.76538086 47.31811523 C40.70834592 52.00128605 43.74072676 56.60300767 46.88745117 61.15234375 C48 63 48 63 48 65 C44.9375 65.625 44.9375 65.625 41 65 C39.31494141 63.11181641 39.31494141 63.11181641 37.6640625 60.6015625 C37.05780029 59.69003418 36.45153809 58.77850586 35.8269043 57.83935547 C35.22402588 56.90236816 34.62114746 55.96538086 34 55 C33.18366089 53.74727295 33.18366089 53.74727295 32.35083008 52.46923828 C30.69591126 49.90666964 29.0641249 47.33061204 27.4375 44.75 C26.2174788 42.82419918 24.99742575 40.89841855 23.77734375 38.97265625 C23.15714355 37.99184082 22.53694336 37.01102539 21.89794922 36.00048828 C18.77196529 31.05858675 15.63655562 26.12269597 12.5 21.1875 C11.93724365 20.2996582 11.3744873 19.41181641 10.79467773 18.49707031 C7.64370305 13.53702016 4.4274054 8.63883843 1.08398438 3.8059082 C0 2 0 2 0 0 Z " fill="#4A8CE8" transform="translate(426,251)"/>
<path d="M0 0 C1.051875 -0.00064453 2.10375 -0.00128906 3.1875 -0.00195312 C4.8271875 0.02801758 4.8271875 0.02801758 6.5 0.05859375 C7.593125 0.05150391 8.68625 0.04441406 9.8125 0.03710938 C18.91068205 0.10958264 18.91068205 0.10958264 22.5 3.49609375 C23.03125 5.43359375 23.03125 5.43359375 23 7.49609375 C23.0103125 8.17671875 23.020625 8.85734375 23.03125 9.55859375 C22.26591751 12.34980634 20.94303945 13.00714072 18.5 14.49609375 C14.52358965 15.139865 10.5230798 15.00558215 6.5 14.99609375 C5.406875 15.02445312 4.31375 15.0528125 3.1875 15.08203125 C-4.80568709 15.10162239 -4.80568709 15.10162239 -8.21875 12.125 C-9.65398007 9.18015293 -10.15956956 7.71149536 -9.5 4.49609375 C-6.55498623 0.79394898 -4.68657371 -0.00905504 0 0 Z " fill="#050101" transform="translate(383.5,347.50390625)"/>
<path d="M0 0 C5.09031755 -0.04936158 10.18049643 -0.08570105 15.27099609 -0.10986328 C17.00344265 -0.11993376 18.73587216 -0.13359089 20.46826172 -0.15087891 C22.95544639 -0.17508162 25.44240675 -0.18647239 27.9296875 -0.1953125 C28.70682098 -0.20563507 29.48395447 -0.21595764 30.28463745 -0.22659302 C32.19125493 -0.22699271 34.09731036 -0.1223214 36 0 C36.66 0.66 37.32 1.32 38 2 C37.86175322 5.24879924 37.69334663 7.26538274 35.42089844 9.6730957 C32.10098198 11.49275544 29.07484267 11.37432463 25.390625 11.29296875 C24.66381531 11.28872391 23.93700562 11.28447906 23.18817139 11.28010559 C20.87506496 11.2633613 18.56284145 11.22571885 16.25 11.1875 C14.67839803 11.17244758 13.10678236 11.15876015 11.53515625 11.14648438 C7.68976585 11.11347195 3.84503244 11.06172056 0 11 C0 7.37 0 3.74 0 0 Z " fill="#D2E0EF" transform="translate(460,427)"/>
<path d="M0 0 C3.96 0 7.92 0 12 0 C12 0.33 12 0.66 12 1 C8.37 1 4.74 1 1 1 C1 1.99 1 2.98 1 4 C17.17 4 33.34 4 50 4 C45 12 45 12 42.65238953 12.96203613 C41.84630753 12.94427124 41.04022552 12.92650635 40.2097168 12.90820312 C38.82885139 12.90729675 38.82885139 12.90729675 37.42008972 12.90637207 C36.4397023 12.86508179 35.45931488 12.8237915 34.44921875 12.78125 C33.43527542 12.76993042 32.42133209 12.75861084 31.37666321 12.74694824 C28.14500216 12.70223984 24.91781442 12.60188599 21.6875 12.5 C19.4942048 12.45986592 17.3008399 12.42336503 15.10742188 12.390625 C9.7365634 12.30252164 4.3690394 12.16451008 -1 12 C-0.67 8.04 -0.34 4.08 0 0 Z " fill="#4A8AE4" transform="translate(89,401)"/>
<path d="M0 0 C6.64621609 1.49539862 11.70351405 5.4782939 15.3984375 11.14453125 C18.77250465 17.976419 18.9805813 24.23763574 16.875 31.5 C13.69968474 40.00212918 8.19841585 47.80394183 0 52.03125 C-1.64224586 52.74642158 -3.31864309 53.38235869 -5 54 C-2.63220247 48.86977201 0.65823919 44.43068942 4.125 40 C8.58272486 34.04510997 9.87307955 28.35697912 9 21 C8.19170484 18.53075687 7.1318536 16.35425548 6 14 C5.814375 12.7625 5.814375 12.7625 5.625 11.5 C4.8110159 8.24406362 3.10801832 6.16916788 1.05859375 3.55078125 C0 2 0 2 0 0 Z " fill="#38587C" transform="translate(179,405)"/>
<path d="M0 0 C7.51676137 1.53403293 11.5972623 5.10439303 16.4375 10.9375 C19.75035696 17.39111746 18.86492813 26.0159248 17.375 32.87890625 C14.65188012 40.64709198 9.19101447 47.29231732 2.1875 51.625 C-1 53 -1 53 -4 52 C-3.60167969 51.55269531 -3.20335937 51.10539062 -2.79296875 50.64453125 C0.18654289 47.24455325 2.8125424 43.97719563 5 40 C5.3403125 39.43152344 5.680625 38.86304688 6.03125 38.27734375 C9.50442077 32.43497435 10.74414172 27.83840582 10 21 C8.68390585 17.3734758 8.68390585 17.3734758 7 14 C6.71125 13.030625 6.4225 12.06125 6.125 11.0625 C4.63244392 6.99943068 2.38825986 3.59150529 0 0 Z " fill="#39597D" transform="translate(428,405)"/>
<path d="M0 0 C1.40897804 0.00333092 1.40897804 0.00333092 2.84642029 0.00672913 C3.90744461 0.00680466 4.96846893 0.00688019 6.06164551 0.00695801 C7.21579453 0.01211929 8.36994354 0.01728058 9.55906677 0.02259827 C10.73404221 0.02401321 11.90901764 0.02542816 13.11959839 0.02688599 C16.88981116 0.0325046 20.65996556 0.04506026 24.43016052 0.05775452 C26.97898779 0.06276712 29.52781599 0.06733044 32.0766449 0.07142639 C38.34033685 0.08248007 44.60399452 0.0992363 50.86766052 0.12025452 C50.53766052 2.43025452 50.20766052 4.74025452 49.86766052 7.12025452 C32.37766052 7.12025452 14.88766052 7.12025452 -3.13233948 7.12025452 C-3.13233948 0.17665009 -3.13233948 0.17665009 0 0 Z " fill="#E73D4D" transform="translate(383.13233947753906,50.87974548339844)"/>
<path d="M0 0 C11.44786352 -0.32501671 22.89462285 -0.57344213 34.34616756 -0.72537041 C39.66448831 -0.79830984 44.97964396 -0.89713628 50.29614258 -1.05615234 C55.43171037 -1.20878751 60.56424475 -1.29207483 65.7019062 -1.3282814 C67.65708763 -1.3540635 69.6121107 -1.4044211 71.56599236 -1.48022079 C86.31125767 -2.02926688 86.31125767 -2.02926688 90.73842239 1.31203461 C95.18966248 6.04573088 98.14770052 11.62782562 98.26426697 18.21340942 C98 22 98 22 97 26 C94.03 26 91.06 26 88 26 C88.06960938 25.09378906 88.13921875 24.18757813 88.2109375 23.25390625 C88.55377928 15.53996613 88.25302975 10.75604589 83.3125 4.671875 C82 3 82 3 82 1 C54.94 1 27.88 1 0 1 C0 0.67 0 0.34 0 0 Z " fill="#CC2B3B" transform="translate(395,330)"/>
<path d="M0 0 C1.03125 -0.0103125 2.0625 -0.020625 3.125 -0.03125 C6.662117 0.62234771 7.8753463 1.63478191 10 4.5 C10 8.0625 10 8.0625 9 11.5 C6.13221466 14.25281844 4.00241565 14.95143401 0.0625 15 C-3.78336718 14.88070427 -4.8489432 14.60573976 -8.125 12.3125 C-10 9.5 -10 9.5 -10.5625 6.9375 C-9.24084028 1.2103079 -5.43451556 -0.05434516 0 0 Z " fill="#09090A" transform="translate(327,187.5)"/>
<path d="M0 0 C3.35136513 0.55856086 4.61306643 1.11812349 7 3.5 C7.53125 6.27734375 7.53125 6.27734375 7.5 9.4375 C7.5103125 10.47777344 7.520625 11.51804688 7.53125 12.58984375 C6.8802904 16.15576215 5.86711809 17.33816229 3 19.5 C-0.5625 20 -0.5625 20 -4 19.5 C-6.79188838 16.64994727 -7.43142638 14.50428238 -7.4375 10.5625 C-7.31968925 7.0947663 -7.01249017 5.52401955 -5.375 2.375 C-3 0.5 -3 0.5 0 0 Z " fill="#060606" transform="translate(397,122.5)"/>
<path d="M0 0 C1.04027344 -0.01933594 2.08054687 -0.03867188 3.15234375 -0.05859375 C6.73222151 0.55166729 7.92430226 1.54191655 10.0625 4.4375 C10.0625 8 10.0625 8 9.0625 11.4375 C6.16746314 14.22914269 4.04338375 14.86893158 0.0625 14.875 C-3.23285735 14.75835018 -4.68635026 14.58699389 -7.5625 12.875 C-9.45629045 9.51782602 -9.42008091 7.22920715 -8.9375 3.4375 C-6.53736588 -0.06539845 -4.06288884 0.00502211 0 0 Z " fill="#060607" transform="translate(450.9375,187.5625)"/>
<path d="M0 0 C7.92 0 15.84 0 24 0 C23.855625 2.35125 23.71125 4.7025 23.5625 7.125 C23.49784546 8.21772217 23.49784546 8.21772217 23.43188477 9.33251953 C23.17635511 13.31618905 22.66027708 17.03833749 22 21 C12.76 21 3.52 21 -6 21 C-6 20.67 -6 20.34 -6 20 C0.27 20 6.54 20 13 20 C13.66 13.73 14.32 7.46 15 1 C10.05 1 5.1 1 0 1 C0 0.67 0 0.34 0 0 Z " fill="#DB2D3F" transform="translate(463,392)"/>
<path d="M0 0 C6.93 0 13.86 0 21 0 C21 2.31 21 4.62 21 7 C20 8 20 8 18.05053711 8.11352539 C17.2178833 8.10828857 16.38522949 8.10305176 15.52734375 8.09765625 C14.62822266 8.09443359 13.72910156 8.09121094 12.80273438 8.08789062 C11.85720703 8.07951172 10.91167969 8.07113281 9.9375 8.0625 C8.98810547 8.05798828 8.03871094 8.05347656 7.06054688 8.04882812 C4.70696935 8.0370011 2.35351523 8.02052025 0 8 C0 5.36 0 2.72 0 0 Z " fill="#68A5FD" transform="translate(394,72)"/>
<path d="M0 0 C5.61 0 11.22 0 17 0 C17 2.31 17 4.62 17 7 C16 8 16 8 12.40234375 8.09765625 C10.91403133 8.0909822 9.42573568 8.07902183 7.9375 8.0625 C6.79958008 8.05573242 6.79958008 8.05573242 5.63867188 8.04882812 C3.75908129 8.0370068 1.87953101 8.01907078 0 8 C0 5.36 0 2.72 0 0 Z " fill="#4784D8" transform="translate(473,370)"/>
<path d="M0 0 C1.5778125 0.4021875 1.5778125 0.4021875 3.1875 0.8125 C4.22070308 4.51481104 4.528794 6.17257375 2.6875 9.625 C-0.49251282 12.40751122 -2.63205916 12.73508443 -6.8125 12.8125 C-8.8125 10.8125 -8.8125 10.8125 -9.25 8 C-8.8125 4.8125 -8.8125 4.8125 -6.75 1.875 C-3.8125 -0.1875 -3.8125 -0.1875 0 0 Z " fill="#CAD8E6" transform="translate(420.8125,426.1875)"/>
<path d="M0 0 C3.25 0.875 3.25 0.875 4.25 1.875 C4.09285557 6.03932738 3.86857279 8.20487948 1 11.3125 C-1.96323941 12.99615876 -3.4098364 13.41664815 -6.75 12.875 C-8.75 10.875 -8.75 10.875 -9.1875 8.0625 C-8.75 4.875 -8.75 4.875 -6.6875 1.9375 C-3.75 -0.125 -3.75 -0.125 0 0 Z " fill="#CBD9E7" transform="translate(170.75,426.125)"/>
<path d="M0 0 C1.38232443 1.62626404 2.71937515 3.2925002 4 5 C2.44499019 8.81684226 -0.03595495 11.19195732 -3 14 C-5.86697492 12.71480435 -7.97607712 11.42870746 -10 9 C-10 7 -10 7 -8.3203125 5.2734375 C-7.59585937 4.64695312 -6.87140625 4.02046875 -6.125 3.375 C-5.04605469 2.42753906 -5.04605469 2.42753906 -3.9453125 1.4609375 C-2 0 -2 0 0 0 Z " fill="#619CEF" transform="translate(318,103)"/>
<path d="M0 0 C1.8588679 2.20810975 3.37694278 4.6081262 5 7 C2.36 9.31 -0.28 11.62 -3 14 C-4.98 12.35 -6.96 10.7 -9 9 C-7.45665977 5.21180126 -4.44676575 0 0 0 Z " fill="#639EF2" transform="translate(487,103)"/>
<path d="M0 0 C6.93 0 13.86 0 21 0 C21 2.31 21 4.62 21 7 C20 8 20 8 16.9375 8.0625 C15.968125 8.041875 14.99875 8.02125 14 8 C14.33 5.69 14.66 3.38 15 1 C10.38 1 5.76 1 1 1 C0.67 1.99 0.34 2.98 0 4 C0 2.68 0 1.36 0 0 Z " fill="#4E8BE1" transform="translate(394,72)"/>
<path d="M0 0 C0.33 0.66 0.66 1.32 1 2 C-2.51058027 10.516973 -8.35743651 17.81513583 -14 25 C-14.66 24.67 -15.32 24.34 -16 24 C-14.97991747 20.37303989 -13.3098197 18.09629456 -10.8125 15.375 C-6.52522728 10.67341101 -3.2840376 5.4301412 0 0 Z " fill="#EB9C2A" transform="translate(468,231)"/>
<path d="M0 0 C2.31 0 4.62 0 7 0 C6.67 2.31 6.34 4.62 6 7 C3.69 7 1.38 7 -1 7 C-0.67 4.69 -0.34 2.38 0 0 Z " fill="#68A5FD" transform="translate(474,371)"/>
</svg>
